<svg width="1720" height="527" viewBox="0 0 1720 527" fill="none" xmlns="http://www.w3.org/2000/svg">
<rect width="1720" height="527"/>
<path d="M1578.5 64.5L1689.5 77L1768.5 14.5L1891.5 0L1942 75L2123.5 58L2321.5 77V444.5H602V106L764.5 108.5L909 58L1034 83.5L1140.5 64.5L1272 123L1391 125L1518 96L1578.5 64.5Z" fill="#5C6B4D"/>
<path d="M-21.5 101.5L89.5 114L168.5 51.5L291.5 37L342 112L523.5 95L721.5 114V481.5H-998V143L-835.5 145.5L-691 95L-566 120.5L-459.5 101.5L-328 160L-209 162L-82 133L-21.5 101.5Z" fill="#5C6B4D"/>
<path d="M743 79.5L632 92L553 29.5L430 15L379.5 90L198 73L0 92V459.5H1719.5V121L1557 123.5L1412.5 73L1287.5 98.5L1181 79.5L1049.5 138L930.5 140L803.5 111L743 79.5Z" fill="#29594B"/>
<path d="M976.5 146.5L1087.5 159L1166.5 96.5L1289.5 82L1340 157L1521.5 140L1719.5 159V526.5H0V188L162.5 190.5L307 140L432 165.5L538.5 146.5L670 205L789 207L916 178L976.5 146.5Z" fill="#1F2E33"/>
</svg>
